<?xml version="1.0" encoding="utf-8"?>
<!-- Generator: Adobe Illustrator 27.6.1, SVG Export Plug-In . SVG Version: 6.00 Build 0)  -->
<svg version="1.0" id="Layer_1" xmlns="http://www.w3.org/2000/svg" xmlns:xlink="http://www.w3.org/1999/xlink" x="0px" y="0px"
	 viewBox="0 0 595.28 595.28" style="enable-background:new 0 0 595.28 595.28;" xml:space="preserve">
<style type="text/css">
	.st0{fill:#ABFF01;}
</style>
<g>
	<path d="M149.21,217.16c9.93,0,17.43,7.71,17.43,17.77c0,10.07-7.5,17.77-17.43,17.77c-9.93,0-17.43-7.71-17.43-17.77
		C131.79,224.87,139.28,217.16,149.21,217.16 M147.62,266.6c6.73,0,12.78-2.08,17.77-6.11l3.19-2.57v6.73h14.72V205.5h-14.37v7.22
		l-3.33-2.71c-4.93-4.17-11.18-6.39-18.05-6.39c-8.82,0-16.8,3.19-22.43,8.82c-5.62,5.76-8.82,13.75-8.82,22.7
		c0,8.96,3.05,17.08,8.82,22.84C130.95,263.4,138.8,266.6,147.62,266.6"/>
	<path d="M311.89,275.07c-5.62,0-10.07,4.51-10.07,10.07c0,5.62,4.51,10.07,10.07,10.07c5.62,0,10.07-4.51,10.07-10.07
		S317.44,275.07,311.89,275.07"/>
	<path d="M192.05,295.2c5.62,0,10.07-4.51,10.07-10.07c0-5.62-4.51-10.07-10.07-10.07s-10.07,4.51-10.07,10.07
		C181.98,290.76,186.5,295.2,192.05,295.2"/>
	<path d="M302.93,327.35c0,9.44-7.71,17.08-17.08,17.08h-33.6c-9.1,0-16.45-7.36-16.45-16.45c0-9.44,7.85-17.08,17.29-17.08
		c8.82,0,16.18,7.22,16.18,15.97h17.91c0-18.75-15.83-33.88-34.58-33.88s-34.58,15.21-34.58,33.88v0.97c0,6.11,1.6,11.8,4.51,16.8
		h-7.01c-8.33,0-15.07-6.73-15.07-15.07v-7.22v-0.14v-19.65h-17.77v26.24c0,8.82-7.5,15.83-16.32,15.83c-9.3,0-17.29-7.5-17.29-16.8
		v-53.39h-19.02v53.11c0,19.16,16.66,34.58,35.69,34.58l0,0c12.15,0,20.48-4.65,25.9-11.66c4.93,7.22,12.98,11.66,23.05,11.66h18.4
		v-5.9c5.42,3.82,12.15,5.9,19.37,5.9h33.74c19.16,0,34.58-15.48,34.58-34.58v-24.93H303L302.93,327.35L302.93,327.35z"/>
	<path d="M92.14,305.48c8.61,0,15.69,6.39,16.66,14.72h17.77c-0.97-18.05-15.48-32.49-33.88-32.49c-19.02,0-35.2,15.48-35.2,34.58
		v0.49c0,9.1,3.54,17.29,9.3,23.33c-10.69,5.14-14.72,13.47-15.48,22.22c-1.11,11.53,5.28,23.05,17.57,28.47
		c11.39,4.93,32.01,7.71,54.09-3.19l-3.54-17.57c-19.65,11.04-53.6,9.93-51.17-8.12c1.11-8.61,11.18-10.9,21.73-10.9
		c6.39,0,16.18-0.14,16.18-0.14h16.94V338.8H90.96c-8.82,0-15.83-7.01-15.83-15.83v-0.62C75.34,312.97,82.84,305.48,92.14,305.48"/>
	<polygon points="53.75,285.13 55.62,285.13 55.62,277.15 58.19,277.15 58.19,275.55 51.18,275.55 51.18,277.15 53.75,277.15 	"/>
	<polygon points="68.47,285.13 68.47,275.55 66.52,275.55 63.95,280.69 61.59,275.55 59.65,275.55 59.65,285.13 61.59,285.13 
		61.59,279.58 63.33,283.26 64.58,283.26 66.52,279.58 66.52,285.13 	"/>
	<path d="M71.17,229.8c0-6.39,5.14-11.53,11.53-11.53s11.53,5.14,11.53,11.53v34.71h17.29v-36.45c0-14.86-8.47-24.16-21.94-24.16
		c-14.72,0-21.94,11.18-21.94,11.18v-9.3H53.4v58.67h17.77V229.8z"/>
	<path d="M209.82,229.8c0-6.39,5.14-11.53,11.53-11.53s11.53,5.14,11.53,11.53v34.71h17.43v-36.45c0-14.86-8.47-24.16-21.94-24.16
		c-14.72,0-21.94,11.18-21.94,11.18v-9.3h-14.23v58.67h17.77L209.82,229.8z"/>
	<path d="M286.75,217.3c9.93,0,17.43,7.71,17.43,17.77c0,10.07-7.5,17.77-17.43,17.77s-17.43-7.71-17.43-17.77
		C269.33,224.87,276.82,217.3,286.75,217.3 M285.16,266.6c6.73,0,12.78-2.08,17.77-6.11l3.19-2.57v6.73h14.72V205.5h-14.37v7.22
		l-3.33-2.71c-4.93-4.17-11.18-6.39-18.05-6.39c-8.82,0-16.8,3.19-22.43,8.82c-5.62,5.76-8.82,13.75-8.82,22.7
		c0,8.96,3.05,17.08,8.82,22.84C268.35,263.4,276.34,266.6,285.16,266.6"/>
	<path d="M504.76,194.11H401.73c-21.94,0-39.51,17.77-39.51,39.51v103.03c0,13.75,7.01,25.76,17.57,32.98l0.14,0.14
		c6.25,4.17,13.75,6.53,21.73,6.53h103.03c21.94,0,39.51-17.77,39.51-39.51V233.82C544.41,211.88,526.7,194.11,504.76,194.11"/>
	<path class="st0" d="M504.62,331.86c-4.79,0.35-9.79,0.35-14.86-0.14c-0.49,1.11-1.25,2.08-2.08,3.05h0.14
		c3.33,0.35,6.73,0.49,10.07,0.49c2.43,0,4.93-0.14,7.36-0.35C505.11,333.94,504.76,332.83,504.62,331.86"/>
	<path class="st0" d="M470.67,338.73c-1.46,5.76-3.33,11.39-5.76,16.8c-3.19,7.5-7.01,14.58-11.53,21.25H401.1
		c-8.12,0-15.69-2.43-21.94-6.53l-0.14-0.14c6.39-1.11,12.29-3.33,18.4-7.36c20.97-13.61,30.69-38.39,31.17-41.73
		c1.94,4.03,5.42,7.01,10.07,8.33c0.14,0,0.14,0,0.35,0.14c2.57,5.28,7.22,9.58,13.26,11.39c6.11,1.74,12.29,0.83,17.29-2.43h0.14
		C470.05,338.59,470.39,338.59,470.67,338.73"/>
	<path class="st0" d="M504.9,277.15c-1.11,1.74-3.19,2.71-5.42,2.08c-2.22-0.62-3.68-2.85-3.33-5.14l-7.22-2.57
		c-1.74,6.39,2.08,13.12,8.47,15.07c1.6,0.49,3.33,0.62,4.93,0.35c2.71-0.35,5.42-1.6,7.36-3.68c0.97-0.97,1.74-2.22,2.43-3.68
		L504.9,277.15z"/>
	<path class="st0" d="M445.89,271.52c6.39,1.94,13.12-1.74,15.21-7.98l-7.71-1.6c-0.97,1.94-3.33,2.85-5.42,2.22
		c-1.94-0.49-3.19-2.22-3.33-4.03l-7.71-1.6c0,0.83,0,1.46,0,2.22c0.35,3.05,1.6,5.9,3.82,7.85
		C442.21,269.93,444.01,270.9,445.89,271.52"/>
	<path class="st0" d="M487.34,313.95c3.68,2.22,5.28,5.42,5.62,6.11c5.9-6.73,11.18-16.18,14.37-25.9
		c-6.11,0.97-13.12-1.46-17.29-5.9c0.62-7.85-8.12-12.29-4.93-19.86l35.2,9.93c1.74-6.53,0.14-13.12-3.82-18.05
		c-1.6-1.94-5.14-5.42-10.21-6.73c0,0,4.03-1.11,8.61,0.49c8.47-2.71,15.07-15.34,17.08-24.44c0,0-15.83-3.33-29.58,10.55
		c-8.33-12.15-24.02-16.32-37.42-9.93c-5.28-20.13-18.75-21.25-18.75-21.25c-3.68,8.96-2.85,17.91-0.35,25.9
		c6.11,0.14,8.96,3.82,8.96,3.82c-3.68-0.97-6.73-0.97-10.41,0.14c-4.93,1.6-12.01,7.01-13.89,13.75l35.2,10.21
		c-1.46,7.85-11.53,6.87-15.07,13.89c-5.9,1.46-12.98-0.35-17.57-4.51c-2.22,9.58-3.54,19.65-1.46,27.98c0,0,3.19-2.08,7.5-1.94
		h0.14c-5.28,2.22-9.1,7.5-9.1,13.61c0,8.12,6.53,14.72,14.72,14.72h0.14c5.9,0,11.04-3.68,13.26-8.82
		c0.35-0.62,0.49-1.46,0.83-2.08c2.85-8.33,6.25-21.45,6.53-22.08l0,0c1.46-4.51,0.83-8.12-7.22-11.8l1.25-2.85
		c5.28,2.57,8.33,5.42,9.3,8.96c2.71-2.43,6.73-2.85,12.64-1.94l-0.49,3.19c-8.82-1.46-11.18,0.97-12.64,5.76
		c-0.35,0.97-6.53,20-7.22,23.33c-0.35,1.25-0.62,2.71-0.62,4.03c0,8.12,6.53,14.72,14.72,14.72c8.12,0,14.72-6.53,14.72-14.72
		C490.04,319.22,489.07,316.31,487.34,313.95L487.34,313.95z"/>
	<path class="st0" d="M429.08,304.64c-3.82-2.85-6.11-4.93-6.87-5.42c13.89-18.75-27.49-27.49-34.37-36.94l-0.14-0.14l0,0
		c0,0,0,0.14,0.14,0.35c4.79,11.66-0.35,28.81,10.21,37.77c5.9,4.93,13.75,6.11,19.65,2.85c-8.61-6.25-19.51-20.48-23.05-28.61
		c0,0,15.69,19.16,25.27,27.01l0,0c0.62,0.62,3.54,3.05,7.85,6.25C428.18,306.73,428.6,305.61,429.08,304.64"/>
</g>
</svg>
