<svg version="1.1" id="Слой_1" xmlns="http://www.w3.org/2000/svg" xmlns:xlink="http://www.w3.org/1999/xlink" x="0px" y="0px"
	 viewBox="0 0 209.8 257.3" style="enable-background:new 0 0 209.8 257.3;" xml:space="preserve">
<style type="text/css">
	.st0{clip-path:url(#SVGID_2_);fill:#00365F;}
	.st1{clip-path:url(#SVGID_2_);fill:none;stroke:#00365F;stroke-width:0.924;stroke-miterlimit:10;}
	.st2{clip-path:url(#SVGID_4_);fill:url(#SVGID_5_);}
	.st3{clip-path:url(#SVGID_4_);fill:url(#SVGID_6_);}
	.st4{clip-path:url(#SVGID_8_);fill:url(#SVGID_9_);}
	.st5{clip-path:url(#SVGID_11_);fill:url(#SVGID_12_);}
	.st6{clip-path:url(#SVGID_14_);fill:url(#SVGID_15_);}
</style>
<g>
	<defs>
		<rect id="SVGID_1_" width="209.8" height="257.3"/>
	</defs>
	<clipPath id="SVGID_2_">
		<use xlink:href="#SVGID_1_"  style="overflow:visible;"/>
	</clipPath>
	<path class="st0" d="M31.2,111.7h64.2c2,0,3.6-1.6,3.6-3.6v-0.9c0-2-1.6-3.6-3.6-3.6H31.2c-2,0-3.6,1.6-3.6,3.6v0.9
		C27.7,110,29.3,111.7,31.2,111.7"/>
	<path class="st1" d="M31.2,111.7h64.2c2,0,3.6-1.6,3.6-3.6v-0.9c0-2-1.6-3.6-3.6-3.6H31.2c-2,0-3.6,1.6-3.6,3.6v0.9
		C27.7,110,29.3,111.7,31.2,111.7z"/>
	<path class="st0" d="M205.9,0.5h-4.9c-1.9,0-3.4,1.6-3.4,3.6v0.9c0,2,1.5,3.6,3.4,3.6h4.9c1.9,0,3.4-1.6,3.4-3.6V4.1
		C209.4,2.1,207.8,0.5,205.9,0.5"/>
	<path class="st1" d="M205.9,0.5h-4.9c-1.9,0-3.4,1.6-3.4,3.6v0.9c0,2,1.5,3.6,3.4,3.6h4.9c1.9,0,3.4-1.6,3.4-3.6V4.1
		C209.4,2.1,207.8,0.5,205.9,0.5z"/>
	<path class="st0" d="M180.4,8.6h4.9c1.9,0,3.4-1.6,3.4-3.6V4.1c0-2-1.5-3.6-3.4-3.6h-4.9c-1.9,0-3.4,1.6-3.4,3.6v0.9
		C177,6.9,178.6,8.6,180.4,8.6"/>
	<path class="st1" d="M180.4,8.6h4.9c1.9,0,3.4-1.6,3.4-3.6V4.1c0-2-1.5-3.6-3.4-3.6h-4.9c-1.9,0-3.4,1.6-3.4,3.6v0.9
		C177,6.9,178.6,8.6,180.4,8.6z"/>
	<path class="st0" d="M195.1,19h-2.7c-1.7,0-2.5,0.9-2.5,2.7v81.9h-25.8l0-81.9c0-1.9-0.8-2.7-2.5-2.7h-18.9
		c-21.9,0-34.4,12.1-34.4,33.3v26.1c0,21,12.4,33.2,34,33.3h13.9c0,14-9.2,21.7-24.9,21.7c-12,0-18.2-6.4-18.2-6.4
		c-1.4-1.1-2.6-0.9-3.5,0.5l-1.6,2.3c-1,1.4-0.7,2.6,0.7,3.7c0,0,7.2,7.5,22.7,7.5c10.9,0,18-3,24-8.9c5-5,8.6-11.9,8.6-20.4l31.1,0
		c1.7,0,2.5-0.9,2.5-2.7V21.7C197.5,19.9,196.8,19,195.1,19 M156.5,75.5v13.4v14.7h-13.7c-17.2,0-26.7-9.1-26.7-25.6V52.3
		c0-16.5,9.5-25.6,26.7-25.6h13.7V75.5z"/>
	<path class="st0" d="M131.4,142c-15.1,0-22.5-6.9-23.3-7.7c-1.8-1.4-2.1-3.1-0.9-5l1.6-2.3c0.6-0.9,1.4-1.5,2.2-1.6
		c0.9-0.1,1.8,0.1,2.7,0.9l0.1,0.1c0.1,0.1,6.2,6.1,17.5,6.1c15,0,23.5-7,23.9-19.7h-12.9c-22.3-0.1-35-12.7-35-34.3V52.3
		c0-21.8,12.9-34.3,35.4-34.3h18.9c1.3,0,3.5,0.5,3.5,3.7l0,80.9h23.8V21.7c0-3.2,2.2-3.7,3.5-3.7h2.7c1.3,0,3.5,0.5,3.5,3.7V109
		c0,3.2-2.2,3.7-3.5,3.7l-30.1,0c-0.3,9.6-5,16.2-8.9,20.1C149.6,139.2,142,142,131.4,142 M111.4,127.3c0,0-0.1,0-0.1,0
		c-0.4,0.1-0.7,0.5-0.9,0.8l-1.6,2.3c-0.7,1-0.6,1.6,0.5,2.3l0.1,0.1c0.1,0.1,7.1,7.2,21.9,7.2c10.1,0,17.2-2.7,23.2-8.6
		c3.8-3.8,8.4-10.3,8.4-19.7v-1l32.1,0c1,0,1.5-0.3,1.5-1.7V21.7c0-1.5-0.5-1.7-1.5-1.7h-2.7c-1,0-1.5,0.3-1.5,1.7v82.9h-27.8
		l0-82.9c0-1.5-0.5-1.7-1.5-1.7h-18.9c-21.2,0-33.4,11.8-33.4,32.3v26.1c0,20.4,12,32.2,33,32.3h14.9v1c0,14.4-9.4,22.7-25.9,22.7
		c-11.8,0-18.2-5.9-18.9-6.6C112.1,127.5,111.7,127.3,111.4,127.3 M157.5,104.6h-14.7c-17.9,0-27.7-9.5-27.7-26.6V52.3
		c0-17.2,9.9-26.6,27.7-26.6h14.7V104.6z M142.8,27.7c-16.6,0-25.7,8.7-25.7,24.6V78c0,15.9,9.1,24.6,25.7,24.6h12.7V27.7H142.8z"/>
</g>
<g>
	<defs>
		<path id="SVGID_3_" d="M16.1,185.3v-25.6c0-16.5,9.5-25.6,26.7-25.6h13.7v76.9H42.8C25.6,210.9,16.1,201.8,16.1,185.3 M93.8,126.3
			c-1.7,0-2.5,0.9-2.5,2.7v81.9H64.2l0-81.9c0-1.9-0.8-2.7-2.5-2.7H42.8c-21.9,0-34.4,12.1-34.4,33.3v26.1c0,21,12.4,33.2,34,33.3
			c0,0,13.9,0,13.9,0c-1.4,14-9.2,21.7-24.9,21.7c-12,0-18.2-6.4-18.2-6.4c-1.4-1.1-2.6-0.9-3.5,0.5l-1.6,2.3
			c-1,1.4-0.7,2.6,0.7,3.7c0,0,7.2,7.5,22.7,7.5c10.9,0,18-3,24-8.9c5-5,8-12,8.6-20.4l32.5,0c1.7,0,2.5-0.9,2.5-2.7V129
			c0-1.9-0.8-2.7-2.5-2.7H93.8z"/>
	</defs>
	<clipPath id="SVGID_4_">
		<use xlink:href="#SVGID_3_"  style="overflow:visible;"/>
	</clipPath>
	
		<linearGradient id="SVGID_5_" gradientUnits="userSpaceOnUse" x1="0" y1="257.3331" x2="1" y2="257.3331" gradientTransform="matrix(114.8015 0 0 114.8015 1 -29354.8926)">
		<stop  offset="0" style="stop-color:#86C175"/>
		<stop  offset="1" style="stop-color:#00ADDE"/>
	</linearGradient>
	<rect x="7.1" y="126.3" class="st2" width="91.9" height="122"/>
	
		<linearGradient id="SVGID_6_" gradientUnits="userSpaceOnUse" x1="0" y1="257.339" x2="1" y2="257.339" gradientTransform="matrix(116.802 0 0 -116.802 0 30245.7188)">
		<stop  offset="0" style="stop-color:#86C175"/>
		<stop  offset="1" style="stop-color:#00ADDE"/>
	</linearGradient>
	<polygon class="st3" points="1,119.7 1,119.2 116.3,119.2 116.3,256.8 0.5,256.8 0.5,119.2 1,119.2 1,119.7 1.5,119.7 1.5,255.8 
		115.3,255.8 115.3,120.2 1,120.2 1,119.7 1.5,119.7 	"/>
</g>
<g>
	<defs>
		<rect id="SVGID_7_" width="209.8" height="257.3"/>
	</defs>
	<clipPath id="SVGID_8_">
		<use xlink:href="#SVGID_7_"  style="overflow:visible;"/>
	</clipPath>
	
		<linearGradient id="SVGID_9_" gradientUnits="userSpaceOnUse" x1="0" y1="257.339" x2="1" y2="257.339" gradientTransform="matrix(93.4988 0 0 -93.4988 6.4644 24248.2168)">
		<stop  offset="0" style="stop-color:#86C175"/>
		<stop  offset="1" style="stop-color:#00ADDE"/>
	</linearGradient>
	<path class="st4" d="M96.5,126.3v0.5h-2.7c-1.5,0.1-1.9,0.5-2,2.2v82.4H63.7l0-82.4c-0.1-1.7-0.5-2.2-2-2.2H42.8
		C21.2,126.9,9,138.7,8.9,159.6l0,26.1C9,206.5,21,218.3,42.4,218.5l0,0l0,0c0,0,1.5,0,3.6,0c4.1,0,10.2,0,10.3,0l0.6,0l-0.1,0.6
		c-1.4,14.2-9.6,22.2-25.4,22.1c-12.1,0-18.6-6.5-18.6-6.5l0.4-0.4l-0.3,0.4c-0.6-0.4-1-0.6-1.4-0.6c-0.5,0-0.9,0.3-1.4,1l-1.6,2.3
		l0,0c-0.4,0.5-0.5,1-0.5,1.4c0,0.5,0.3,1.1,1.1,1.7l0,0l0,0c0,0,7,7.3,22.3,7.3c10.8,0,17.7-2.9,23.6-8.8l0,0
		c4.9-4.9,7.8-11.8,8.5-20.1l0-0.5l33,0c1.5-0.1,1.9-0.5,2-2.2V129c-0.1-1.7-0.5-2.2-2-2.2V126.3v-0.5c1.9,0,3,1.2,3,3.2v87.2
		c0,2-1.1,3.2-3,3.2l-32.5,0l0-0.5l0.5,0c-0.7,8.5-3.7,15.7-8.8,20.7l0,0c-6,6-13.4,9.1-24.3,9.1c-15.6,0-23-7.6-23-7.6l0.4-0.3
		l-0.3,0.4c-0.9-0.7-1.5-1.5-1.5-2.5c0-0.6,0.2-1.3,0.7-1.9l0,0l1.6-2.3c0.6-0.9,1.4-1.5,2.3-1.5c0.7,0,1.3,0.3,2,0.8l0,0l0,0
		c0,0,6.1,6.2,17.9,6.2c15.5-0.1,22.9-7.4,24.4-21.2l0.5,0.1l0,0.5c0,0-6.1,0-10.3,0c-2.1,0-3.6,0-3.7,0l0-0.5l0,0.5
		c-21.8-0.1-34.6-12.5-34.5-33.8v-26.1c0-21.4,12.8-33.8,34.9-33.8h18.9c1.9,0,3,1.2,3,3.2l0,81.4h26.2V129c0-2,1.1-3.2,3-3.2h2.7
		V126.3z M56.5,210.9v0.5H42.8c-17.4,0-27.2-9.4-27.2-26.1l0-25.6c0-16.7,9.8-26.1,27.2-26.1H57v77.9h-0.5V210.9H56v-76.4H42.8
		c-17.1,0.1-26.2,8.8-26.2,25.1v25.6c0.1,16.3,9.2,25.1,26.2,25.1h13.7V210.9H56H56.5z"/>
</g>
<g>
	<defs>
		<path id="SVGID_10_" d="M81.9,232.4c-1.9,0-3.4,1.6-3.4,3.6v0.9c0,2,1.5,3.6,3.4,3.6h4.9c1.9,0,3.4-1.6,3.4-3.6V236
			c0-2-1.5-3.6-3.4-3.6H81.9z"/>
	</defs>
	<clipPath id="SVGID_11_">
		<use xlink:href="#SVGID_10_"  style="overflow:visible;"/>
	</clipPath>
	
		<linearGradient id="SVGID_12_" gradientUnits="userSpaceOnUse" x1="0" y1="257.761" x2="1" y2="257.761" gradientTransform="matrix(114.8015 0 0 114.8015 1 -29354.8926)">
		<stop  offset="0" style="stop-color:#86C175"/>
		<stop  offset="1" style="stop-color:#00ADDE"/>
	</linearGradient>
	<rect x="78.4" y="232.4" class="st5" width="11.7" height="8.1"/>
</g>
<g>
	<defs>
		<path id="SVGID_13_" d="M102.5,232.4c-1.9,0-3.4,1.6-3.4,3.6v0.9c0,2,1.5,3.6,3.4,3.6h4.9c1.9,0,3.4-1.6,3.4-3.6V236
			c0-2-1.5-3.6-3.4-3.6H102.5z"/>
	</defs>
	<clipPath id="SVGID_14_">
		<use xlink:href="#SVGID_13_"  style="overflow:visible;"/>
	</clipPath>
	
		<linearGradient id="SVGID_15_" gradientUnits="userSpaceOnUse" x1="0" y1="257.761" x2="1" y2="257.761" gradientTransform="matrix(114.8015 0 0 114.8015 1 -29354.8926)">
		<stop  offset="0" style="stop-color:#86C175"/>
		<stop  offset="1" style="stop-color:#00ADDE"/>
	</linearGradient>
	<rect x="99.1" y="232.4" class="st6" width="11.7" height="8.1"/>
</g>
</svg>
