<?xml version="1.0" encoding="utf-8"?>
<!-- Generator: Adobe Illustrator 26.0.1, SVG Export Plug-In . SVG Version: 6.00 Build 0)  -->
<svg version="1.1" id="Layer_1" xmlns="http://www.w3.org/2000/svg" xmlns:xlink="http://www.w3.org/1999/xlink" x="0px" y="0px"
	 viewBox="0 0 720 720" style="enable-background:new 0 0 720 720;" xml:space="preserve">
<style type="text/css">
	.st0{fill:#26313C;}
	.st1{fill:#E50101;}
	.st2{fill:#191919;}
	.st3{fill:#FFFFFF;}
</style>
<g>
	<g>
		<g>
			<path class="st3" d="M636.7,580.5c-2.7,5-6.7,6.7-11.6,6.7c-7.2,0.1-13.8-1.2-18.6-7.1c-1.1-0.1-1.2,0.8-1.5,1.2
				c-2.5,4-6,5.9-10.8,5.9c-11-0.1-22,0-33,0c-2.9,0-2.8,0-3.1,3c-0.2,3.1-0.4,6.3-1.3,9.3c-1.7,5.2-5,9.2-10.1,11.4
				c-4.3,1.9-8.8,2.4-13.5,1.9c-1.7-0.2-3.3-0.8-4.8-1.6c-4.9-2.6-6.1-6.6-3.6-11.5c0.6-1.1,1.4-2.2,2.1-3.3
				c1.2,0.6,2.2,1.3,3.3,1.7c4.2,1.8,8.3-0.1,9.8-4.3c0.1-0.4,0.2-0.8,0.3-1.1c1.4-5.1,1.3-5.3-3.9-5.5c-2.9-0.1-5.7-0.6-8.5-1.4
				c-15.4-4.2-22.4-16.7-18.1-32.1c3.9-13.9,13.5-21,27.2-23.3c5.2-0.9,10.4-1.2,15.6-0.2c0.9,0.2,1.8,0.4,2.7,0.7
				c4.3,1.5,4.3,1.7,3.3,5.9c-0.7,3-0.7,6-0.7,9c0,8.1,0.2,16.3,0.2,24.4c0,1.9,0.4,2.8,2.6,2.7c8-0.1,16,0,24-0.1
				c4.2,0,5.3-1.1,6-5.2c0.3-1.7,0.3-3.4,0.2-5.1c-0.2-5.5-0.5-11-0.5-16.5c0-5.2,2.8-8.1,8-8.1c3.4,0,6.8,0.6,9.8,2.5
				c1,0.6,1.7,1.2,1.1,2.5c-1.6,3.6-1.5,7.4-1.4,11.2c0,4.1,0,8.1,0.1,12.2c0.1,5.2,5.3,8.3,10.1,6c1.3-0.6,2.1-1.6,2.4-2.9
				c0.5-2.1,0.7-4.1,0.6-6.2c-0.2-7.1-0.4-14.1-0.6-21.2c0-1.4,0-2.9,0.5-4.3c0.8-2.2,2.3-3.6,4.5-3.9c4.4-0.6,8.6,0,12.6,2.1
				c1.2,0.6,1.8,1.4,1.2,2.8c-1.4,3.6-1.5,7.4-1.4,11.2c0,5.2,0,10.5,0.1,15.7c0.1,5.9,3.2,8.3,9,7.1c1.7-0.3,2.8-1.3,3.4-2.9
				c0.6-1.8,0.8-3.6,0.7-5.4c-0.2-8.4-0.4-16.8-0.6-25.2c0-1-0.1-2.1,0.1-3.1c0.6-3.9,2.7-5.7,6.6-5.9c3.8-0.1,7.6,0.2,11,2.3
				c1.1,0.6,1.8,1.2,1.3,2.8c-1.4,4.3-1.6,8.8-1.5,13.2c0,7.2,0.2,14.4,0.4,21.6c0.1,2.6-0.1,5.3-0.6,7.8c-1.1,5.4-4.8,8.8-10.3,9.2
				C649.7,587.7,642.5,586.8,636.7,580.5z M541,542.3c-7.9,2.2-15.7,11.3-16.5,18.8c0,0.4-0.1,0.8-0.1,1.2c0,4.2,2,7.3,5.9,8.8
				c2.7,1,5.6,1.4,8.4,1.6c1.7,0.1,2.3-0.4,2.3-2.2C541,561.3,541,552,541,542.3z"/>
			<path class="st3" d="M156.3,585.9c-0.6,4.6-0.6,8.8-1.5,12.9c-1.6,7.5-6.2,11.8-13.6,13.5c-3.1,0.7-6.2,0.7-9.4,0.6
				c-2.4-0.1-4.6-1-6.6-2.3c-3.9-2.6-4.8-5.9-2.8-10.2c0.6-1.4,1.4-2.8,2.7-4c0.7,0.4,1.3,0.9,2,1.2c5.1,2.5,9.4,0.6,11-4.8
				c0.9-3.1,1-6.2,0.9-9.4c-0.1-11-0.3-22-0.4-33c-0.1-3.8-0.3-7.6-0.2-11.4c0.1-6.2,3.3-9,9.5-8.8c2,0.1,3.9,0.5,5.7,1.3
				c3.9,1.7,4.2,2.3,3.2,6.3c-0.7,2.7-0.8,5.4-0.8,8.2c0,7.7,0,15.5,0,23.2c0,4.1-0.1,3.5,3.7,3.5c33.7,0,67.4,0,101,0
				c8.4,0,16.8,0,25.2,0c4.7,0,6.6-1.7,7.3-6.3c0.2-1.2,0.2-2.3,0.2-3.5c0-7.6,0.6-15.2-0.2-22.8c-0.2-1.6-0.3-3.2-1-4.6
				c-0.8-1.5-0.2-2.3,1.2-3.1c1.9-1,3.8-1.8,5.9-2c8.8-0.7,17.5-0.3,25.7,3.6c15.3,7.2,19.4,21.9,17.2,34.6
				c-1.7,9.8-10.6,17.3-21,18.3c-5.6,0.5-11.3,0.3-16.9,0.1c-2.1-0.1-4.2-0.7-5.9-2c-1.2-0.9-2-1.1-3.3,0c-1.7,1.6-3.9,2-6.2,2
				c-2.1,0-4.2,0-6.3,0c-39.4,0-78.9,0-118.3,0C161.8,587.2,159.2,587.4,156.3,585.9z M311.3,543.1c-0.2,5.6-0.4,11.2-0.6,16.8
				c-0.1,2.5-0.2,5-0.1,7.5c0.1,3.2,1.6,4.8,4.2,5.3c7,1.2,12.2-3.1,12.3-10.2C327.1,554.3,319.5,544.8,311.3,543.1z"/>
			<path class="st3" d="M423.6,582.9c-4.2,3.5-8.8,4.5-13.8,4.3c-4.7-0.1-9.4,0.3-14.1-1c-11.3-3-18.2-12.4-18-24.1
				c0.3-19.7,14.2-29.8,29.7-31.9c4.7-0.6,9.4-1.1,14.1-0.2c1.3,0.2,2.6,0.5,3.8,1c3.9,1.5,4,1.6,2.9,5.5c-0.6,2.3-0.7,4.7-0.7,7
				c0,6.8,0.1,13.6,0.1,20.4c0,1.6,0.1,3.1,0.8,4.6c1.2,2.6,2.9,4.2,6,4.1c4.8-0.1,9.7,0,14.5,0c4.6-0.1,6.2-1.5,6.3-6.1
				c0-8.4-0.2-16.8-0.4-25.2c0-1.8-0.2-3.7,0.1-5.5c0.6-3.2,2.5-5.2,5.6-5.8c4.3-0.8,8.3,0.1,12.1,2.3c1.2,0.7,1.5,1.4,1,2.9
				c-1.2,3.1-1.3,6.4-1.3,9.7c0,8.8,0.1,17.6,0.1,26.3c0,2.5,0,5-0.8,7.4c-1.5,4.9-4.7,7.8-9.9,8.2c-2.9,0.3-5.8,0.2-8.6,0.2
				c-6.6,0-13.1,0-19.7,0C429.7,587.3,426.3,586.5,423.6,582.9z M409.7,542.7c-7.6,2-15,10.1-15.9,17c-1.1,8.1,3,13,10.7,13
				c3.8,0,5.8-1.6,5.8-5.4C410.2,559.3,409.9,551.2,409.7,542.7z"/>
			<path class="st3" d="M502.3,542.5c0,11.7,0,23.3,0,35c0,1.7,0,3.4-0.7,5c-1,2.5-2.9,4.1-5.5,4.5c-4,0.5-7.8-0.1-11.4-2.1
				c-1.4-0.8-2-1.6-1.4-3.4c1.4-3.9,1.3-8,1.3-12.1c-0.1-16.9-0.4-33.8-0.6-50.7c-0.1-4.8-0.2-9.7-0.3-14.5c0-1.5,0.1-2.9,0.5-4.3
				c0.8-2.8,2.7-4.6,5.5-5c4.1-0.6,8.1,0,11.8,2.1c1.3,0.8,1.9,1.4,1.2,3.1c-1.3,3.4-1.2,6.9-1.2,10.5c0,10.6,0,21.2,0,31.9
				C501.7,542.5,502,542.5,502.3,542.5z"/>
			<path class="st3" d="M115.1,542.7c0,11.7,0,23.3,0,35c0,1.6-0.1,3.2-0.6,4.6c-0.9,2.5-2.8,4.2-5.4,4.6c-4.1,0.6-8.1,0-11.7-2.2
				c-1.3-0.8-1.8-1.5-1.2-3.1c1.4-4,1.3-8.3,1.2-12.4c-0.3-21-0.5-41.9-0.8-62.9c0-1.2,0-2.4,0-3.5c0.2-5.2,3-7.9,8.2-8
				c3.5-0.1,6.8,0.6,9.8,2.5c1.1,0.7,1.7,1.3,1.1,2.8c-1.3,3.5-1.3,7.2-1.3,10.9c0,10.6,0,21.2,0,31.9
				C114.6,542.7,114.9,542.7,115.1,542.7z"/>
			<path class="st3" d="M68.2,565.1c-0.3-9.1-0.5-16-0.7-22.9c0-1.2-0.1-2.4,0-3.5c0.3-5.4,3.4-8.4,8.8-8.4c2.3,0,4.4,0.4,6.5,1.3
				c3.9,1.7,4.2,2.3,3.2,6.3c-0.8,3.3-0.8,6.8-0.9,10.2c-0.3,12.8,0.6,25.7-0.3,38.5c-0.3,4.7-0.8,9.4-1.7,14
				c-1.3,6.6-5,10.7-11.9,11.9c-3.5,0.6-7,0.6-10.6,0.5c-1.5,0-2.8-0.6-4.1-1.1c-6.4-2.9-7.8-9.1-3.2-14.5c0.6-0.7,1.1-0.9,1.9-0.4
				c0.9,0.6,1.8,1.1,2.8,1.4c3.7,1.1,7.2-0.5,8.7-4.1c1.2-3,1.5-6.1,1.5-9.2C68.2,577.6,68.2,570.3,68.2,565.1z"/>
			<path class="st3" d="M400.7,521c-4.6,0-7.5-2.9-7.4-7.2c0.1-4.7,3.9-8.3,8.7-8.2c4.3,0,7.4,2.9,7.5,6.9
				C409.6,517.3,405.7,521,400.7,521z"/>
			<path class="st3" d="M421.9,505.6c4.5-0.1,7.7,2.9,7.7,7.1c0,4.7-3.6,8.3-8.5,8.4c-4.7,0.1-7.6-2.6-7.6-7
				C413.4,509.3,417.1,505.7,421.9,505.6z"/>
			<path class="st3" d="M628.5,513.4c-0.1,4.7-3.8,8.2-8.7,8.2c-4.5,0-7.4-3-7.3-7.4c0.2-4.5,4.3-8.3,8.8-8.1
				C625.6,506.3,628.5,509.3,628.5,513.4z"/>
			<path class="st3" d="M445.1,609.7c-4.5,0-7.3-3-7.2-7.4c0.1-4.5,4.2-8.3,8.8-8.1c4.1,0.1,7.3,3.2,7.3,7.1
				C454,606.1,450.1,609.8,445.1,609.7z"/>
			<path class="st3" d="M465.2,609.7c-4.5,0-7.4-3-7.3-7.4c0.1-4.5,4.2-8.3,8.8-8.2c4.1,0.1,7.3,3.2,7.3,7.1
				C474.1,606,470.2,609.7,465.2,609.7z"/>
			<path class="st3" d="M640,521.7c-4.3,0-7.3-2.8-7.4-6.9c-0.1-4.6,3.6-8.5,8.4-8.6c4.3-0.1,7.7,3,7.7,7.2
				C648.6,517.9,644.7,521.6,640,521.7z"/>
			<path class="st3" d="M639.4,495.2c0,4.6-3.8,8.3-8.6,8.3c-4.4,0-7.4-3-7.3-7.4c0.1-4.5,3.8-8,8.4-8.1
				C636.2,487.9,639.4,490.9,639.4,495.2z"/>
			<path class="st3" d="M147.5,521.8c-4.5,0-7.2-2.6-7.3-6.9c-0.1-4.9,3.4-8.3,8.4-8.4c4.5,0,7.6,2.9,7.6,7.1
				C156.2,518.4,152.5,521.8,147.5,521.8z"/>
		</g>
		<path class="st3" d="M456.6,91.5c51.8,30.4,86,74,99,133c15.4,70.3-7.8,137.7-56,186c2.4-5.6,4.7-10.3,6.6-15.1
			c6.5-16.7,10.4-33.9,9.5-51.8c-1.1-20.4-7-39.4-17.4-57c-12.7-21.3-29.5-39-49-54.1c-7.7-5.9-15.7-11.4-24-16.2
			c-0.2-0.7,0.2-1,0.6-1.3c14.1-10.2,22.9-24.2,28.7-40.4c5.1-14.1,6.7-28.8,6.5-43.7c-0.2-12.5-1.9-24.8-4.5-37
			C456.3,93.2,455.9,92.6,456.6,91.5z"/>
		<path class="st3" d="M269,90c-5,10.8-7.7,22.2-9.1,34c-1.5,13-0.6,25.9,2.4,38.6c0.4,1.8,0,2.7-1.5,3.9
			c-40.5,29.8-66.9,69.1-78.8,118c-4.9,20.3-6.1,40.9-5,61.7c-1.5-0.3-1.4-1.8-1.8-2.7c-7.9-19.3-12.8-39.3-14.5-60.1
			c-3-38.3,4.3-74.5,21.9-108.7c6.2-12,13.6-23.3,22.1-33.7c10.5-13,22.6-24.5,36-34.4c7.9-5.8,16.1-11.1,24.8-15.6
			c1-0.5,2-1.9,3.5-0.9L269,90z"/>
	</g>
	<g>
		<g>
			<path class="st1" d="M436.3,669.8c-1,1-0.6,2.2-0.7,3.3c-0.4,6.3-0.7,12.6-1,18.8c-0.3,5.1-2.4,6.7-7.5,5.5
				c-0.9-0.2-1.8-0.5-2.6-0.8c-3.7-1.4-3.7-1.4-2.4-5.3c3.4-10.8,3.9-21.9,3.8-33c0-0.9-0.3-1.8-0.5-2.7c-0.8-3.3-0.7-3.7,2.4-4.9
				c5.2-2.2,9.7-0.9,12.4,4c3.3,6,6.2,12.1,9.3,18.2c0.9,1.8,1.9,3.6,3.1,5.7c1.6-1.4,2.2-2.8,2.8-4.2c2.6-5.3,5.1-10.6,7.7-15.9
				c0.9-1.9,2-3.7,3.2-5.4c3.1-4.1,9.9-4.5,13.7-1c0.7,0.7,0.6,1.2,0.4,2.1c-2.6,12.9-1.2,25.5,2.8,37.9c0.9,2.9,1,2.9-1.6,4
				c-1.8,0.8-3.6,1.5-5.6,1.6c-4,0.3-5.6-1.1-5.8-5.1c-0.4-6-0.6-12-1-18.1c-0.1-1.6,0.1-3.4-0.6-5c-1.1,0.4-1.3,1.4-1.6,2.2
				c-2.9,5.9-5.7,11.8-8.5,17.7c-0.6,1.2-1.1,2.4-1.8,3.5c-2.6,4.3-6.1,4.2-8.6-0.3c-0.8-1.4-1.4-2.8-2.1-4.2
				c-2.6-5.4-5.2-10.9-7.8-16.3C437.6,671.4,437.4,670.3,436.3,669.8z"/>
			<path class="st1" d="M225,686.5c1.3-1,1.7-2.4,2.1-3.7c1.3-3.7,2.5-7.4,3.8-11.1c0.6-1.6,1-3.3,1.8-4.7c2-3.6,5.7-3.6,7.7,0
				c1,1.8,1.5,3.9,2.2,5.9c1.1,3.5,2.1,7,3.2,10.5c0.4,1.4,0.8,2.8,1.9,3.8c1.2,0,1.5-1,1.9-1.7c3.2-5.9,6-12,4.5-19
				c-0.2-0.8,0-1.3,0.8-1.5c0.8-0.2,1.5-0.5,2.3-0.6c5.7-1,8.5,1.4,7.4,7.1c-1.8,9.4-6.4,17.4-12.8,24.4c-0.6,0.7-1.4,1.2-2.2,1.6
				c-3.4,2-6.2,1.3-8.5-2c-1.4-2.1-2.1-4.5-2.9-6.8c-0.7-2.2-1.3-4.5-2-6.8c-1.2,0.2-1.2,1.2-1.5,2c-1.1,2.5-2.1,5.1-3.2,7.6
				c-0.9,1.9-2.1,3.6-3.7,5.1c-3.9,3.5-8.2,2.8-10.8-1.8c-2.2-3.9-3.4-8.2-5.1-12.3c-1.6-4-2.9-8.2-5.7-11.6c-0.7-0.9-0.8-1.5,0-2.3
				c1.1-1.1,2.2-2.2,3.7-2.9c3.4-1.7,6.2-0.8,7.6,2.8c1.7,4.5,3.1,9.2,4.7,13.7C223,683.4,223.2,685.4,225,686.5z"/>
			<path class="st1" d="M143.7,667.9c3.8-2.6,7.4-4.2,11.6-4c5.8,0.3,9.5,3.6,10.3,9.4c0.4,3.3,0.1,6.5,0,9.8
				c-0.1,3.8-0.2,7.6,1.1,11.3c0.5,1.4-0.1,1.9-1.2,2.3c-2.1,0.7-4.3,1.2-6.5,1.1c-3-0.2-4.3-1.4-4.3-4.4c-0.1-2.7,0.1-5.5,0.3-8.2
				c0.2-3,0.2-6-0.4-9c-0.7-3-2.7-4.4-5.8-3.9c-1,0.2-2,0.6-3,0.9c-1.7,0.5-2.5,1.6-2.6,3.4c-0.3,5.8-0.4,11.5,1,17.2
				c0.5,2.1-0.2,2.9-2,3.3c-0.3,0.1-0.5,0.1-0.8,0.2c-7.1,1.9-9.2,0.3-9-6.9c0.2-7.8,0.5-15.7,0.7-23.5c0.1-4.7-0.1-9.4-1.3-14
				c-0.4-1.4,0-2.2,1.4-2.7c2.1-0.7,4.3-1.2,6.5-1c2.7,0.2,3.6,1.1,4,3.9c0.4,2.7-0.2,5.5-0.2,8.2
				C143.7,663.2,143.7,665.3,143.7,667.9z"/>
			<path class="st1" d="M310.5,706.8c0.9-1,1.7-1.7,2.3-2.5c3.1-3.7,4.8-7.5,1.9-12.3c-2.5-4.1-4.1-8.8-6.2-13.1
				c-1.2-2.3-2.4-4.7-4.7-6.2c-1.2-0.8-1.1-1.6-0.6-2.6c0.6-1,1-2.1,1.7-3.1c2.8-4,8.4-4.3,10.3,1.4c1.8,5.3,3.9,10.5,5.9,15.8
				c0.3,0.7,0.4,1.6,1.5,2.1c2.5-5.1,4.5-10.3,5.8-15.9c0.1-0.6,0.3-1.4,0-1.9c-1.2-2.4,0.3-3,2.1-3.4c2-0.4,4.1-1.1,6.2-0.7
				c2.4,0.6,3.3,1.9,2.6,4.3c-0.5,1.5-1.1,2.9-1.7,4.4c-4.3,10.4-8.7,20.8-13,31.1c-0.3,0.6-0.5,1.2-0.8,1.8
				c-1.2,2.8-2.6,5.7-6.1,5.9C314.2,712.1,312.3,709.6,310.5,706.8z"/>
			<path class="st1" d="M119.9,649.5c0.3,0,0.5,0,0.8,0c2.1,0.2,4.3,0.2,5.4,2.4c0.9,1.8,0.2,5.7-1.2,7.5c-0.6,0.8-1.3,0.7-2.1,0.4
				c-2.3-0.8-4.7-0.8-7-0.4c-2,0.3-3.8,1.2-4.4,3.4c-0.5,2,0.5,3.6,2.1,4.8c1.9,1.4,3.8,2.8,5.8,4.1c10.5,6.9,7.4,18-0.1,23.1
				c-4.1,2.8-8.6,3.9-13.4,3.7c-5.6-0.3-7.8-4.4-5.3-9.3c0.6-1.2,1.3-1.8,2.8-1.1c1.2,0.5,2.5,0.8,3.8,1.1c2.1,0.4,4.2,0.1,6.1-0.9
				c2.7-1.4,3.3-4.3,1.2-6.5c-0.8-0.9-1.8-1.5-2.7-2.2c-2-1.5-4.1-2.8-6.1-4.3c-6.1-4.8-6.8-11.9-1.9-17.9
				C107.6,652.5,113.4,649.7,119.9,649.5z"/>
			<path class="st1" d="M191.8,694.5c-3.4,2.6-6.8,3.9-10.8,3.6c-4.6-0.4-8.1-2.9-9.1-6.8c-1.3-4.8,0.4-9.4,4.4-12
				c3.1-2,6.5-2.6,10.1-2.6c0.7,0,1.3,0.1,2,0c1.1-0.2,2.8,1.1,3.3-0.9c0.4-1.7-0.5-3.1-2-4c-3.5-2-7-1.6-10.5,0.1
				c-0.5,0.2-0.8,0.6-1.3,0.9c-1.8,1.3-3.1,0.9-3.7-1.1c-0.5-1.6-0.3-3.1,0.9-4.4c0.7-0.8,1.5-1.5,2.5-1.8c6-2.4,12-2.5,17.9-0.2
				c3.2,1.2,4.8,3.9,5.4,7.2c0.5,2.3,0.5,4.7,0.4,7c-0.3,5-0.4,9.9,1.5,14.7c0.3,0.7,0.2,1.2-0.4,1.7
				C199.2,698.7,194.5,698.2,191.8,694.5z M191.8,686.2c0-3.4,0-3.6-1.4-3.8c-2.5-0.4-5-0.3-7.2,1.1c-2.7,1.7-2.7,5.7,0,7.2
				c2.3,1.3,4.5,0.6,6.7-0.5C191.8,689.2,191.9,687.6,191.8,686.2z"/>
			<path class="st1" d="M363.3,694.5c-3.3,2.5-6.7,3.9-10.7,3.6c-4.6-0.4-8.1-2.9-9.2-6.7c-1.3-4.8,0.3-9.4,4.4-12
				c3.1-2,6.5-2.6,10.1-2.7c0.9,0,1.8,0.1,2.7,0.1c0.8,0,2,0.6,2.5-0.5c0.5-1,0.2-2.1-0.4-3c-0.7-1.2-1.8-1.9-3.1-2.2
				c-3.6-1-7-0.5-10,1.8c-1.9,1.4-3.3,0.9-3.8-1.4c-0.4-1.8,0-3.4,1.4-4.6c1.1-1,2.4-1.7,3.8-2.1c4.8-1.3,9.5-1.4,14.3-0.2
				c4.2,1.1,6.6,4,7.4,8.2c0.5,2.5,0.5,4.9,0.3,7.4c-0.2,4.7-0.3,9.4,1.5,13.9c0.3,0.7,0.3,1.2-0.3,1.7
				C370.9,698.7,366,698.2,363.3,694.5z M363.1,685.2c-0.2-0.6,1-2.5-1.2-2.9c-2.5-0.4-5-0.3-7.2,1.1c-2.5,1.6-2.7,5.4-0.3,7
				c2.2,1.4,4.4,1,6.7-0.1C363.1,689.5,363.5,687.9,363.1,685.2z"/>
			<path class="st1" d="M509,694.5c-3.4,2.4-6.8,4-11,3.5c-4.4-0.5-7.8-2.8-8.9-6.5c-1.4-4.5,0.1-9.2,3.9-11.9
				c3.1-2.2,6.7-2.9,10.4-3c1,0,2.1,0.1,3.1,0.1c2.4,0,3.1-0.9,2.1-3c-0.6-1.4-1.8-2.2-3.2-2.7c-3.6-1.1-7-0.6-10,1.7
				c-2.2,1.6-3.8,0.9-4.1-1.9c-0.2-1.9,0.5-3.3,2-4.4c1.5-1.2,3.2-1.8,5-2.1c4.3-0.7,8.6-0.9,12.8,0.4c4,1.2,6.3,4,7.1,8
				c0.5,2.7,0.5,5.5,0.3,8.2c-0.2,4.5-0.1,8.9,1.5,13.1c0.2,0.6,0.5,1.1-0.1,1.7c-1.5,1.5-6.7,2.3-8.6,1.4
				C510.1,696.7,509.7,695.6,509,694.5z M508.7,685.5c-0.3-0.9,0.9-2.8-1.3-3.1c-2.5-0.4-5-0.3-7.2,1.1c-2.7,1.7-2.7,5.7,0,7.2
				c2.3,1.3,4.5,0.6,6.7-0.5C508.8,689.2,508.9,687.6,508.7,685.5z"/>
			<path class="st1" d="M288.1,694.6c-3.2,2.5-6.7,3.9-10.7,3.5c-4.6-0.4-8-2.9-9.1-6.8c-1.3-4.4,0.4-9.2,4.2-11.8
				c2.8-1.9,6-2.6,9.3-2.8c1.3-0.1,2.6,0,3.9,0c0.9,0,2,0.6,2.5-0.4c0.5-1,0-2.1-0.5-3c-0.7-1.2-1.8-1.9-3.1-2.2
				c-3.6-1.1-7-0.5-10,1.8c-1.8,1.4-3.3,0.9-3.9-1.2c-0.6-2,0.2-3.6,1.7-4.9c1.4-1.2,3.1-1.9,4.9-2.3c3.9-0.8,7.8-0.9,11.7-0.1
				c5.4,1.1,8.3,4.5,8.9,10.1c0.2,2.1,0.1,4.2,0.1,6.3c0,4.6-0.4,9.2,1.5,13.5c0.4,0.9,0.1,1.4-0.6,2
				C295.1,698.7,291,698.2,288.1,694.6z M288.3,685.8c-0.3-1.2,0.7-3.1-1.5-3.4c-2.4-0.3-4.8-0.2-6.9,1c-2.9,1.6-3.2,5.5-0.6,7.2
				c2.2,1.4,4.5,0.9,6.7-0.2C288,689.4,288.6,687.8,288.3,685.8z"/>
			<path class="st1" d="M579.1,694.6c-3.3,2.6-6.7,3.9-10.8,3.5c-4.6-0.4-7.9-3-9-6.9c-1.1-4.2,0.3-8.7,3.7-11.3
				c3.2-2.4,6.9-3.1,10.7-3.2c1,0,2.1,0.1,3.1,0.1c2.6,0,3.2-0.9,1.9-3.2c-0.7-1.2-1.7-2-3-2.4c-3.6-1.1-7-0.6-10.1,1.5
				c-0.7,0.5-1.1,1.7-2.2,1.1c-1.2-0.6-2-1.7-2.1-3.1c-0.1-1.3,0.3-2.4,1.1-3.2c0.7-0.7,1.6-1.5,2.5-1.8c5.9-2.4,12-2.6,17.9-0.2
				c4,1.6,5.4,5.1,5.8,9.1c0.2,2.5,0,5,0,7.5c0,4.1-0.2,8.1,1.4,12c0.4,1,0.3,1.6-0.7,2.3C585.8,698.7,582.1,698.2,579.1,694.6z
				 M579.3,685.9c-0.2-1.2,0.8-3.1-1.4-3.5c-2.4-0.4-4.7-0.3-6.9,0.9c-2.9,1.6-3.3,5.5-0.7,7.2c2.2,1.5,4.5,1,6.7-0.1
				C578.9,689.4,579.7,688,579.3,685.9z"/>
			<path class="st1" d="M539.7,689c4.1,0.2,7.9,0.6,11.6-0.4c1.9-0.5,2.6,0.2,3.1,1.9c1.3,4.6-0.4,7.2-5.2,7.2
				c-4.3,0-8.6-0.3-12.9-0.5c-2.6-0.1-5.3-0.3-7.8,0.3c-1.9,0.5-2.7-0.5-3.1-2.1c-0.7-2.6,0-4.8,1.8-6.9c3.3-3.7,6.5-7.5,9.6-11.4
				c0.9-1.1,2-2.1,2.3-3.8c-3.1-1.1-6.1-0.6-9.2-0.1c-3.4,0.6-3.4,0.6-4.1-2.1c-0.9-3.3-0.2-5.4,2.3-6.1c1.1-0.3,2.3-0.4,3.5-0.4
				c4.6,0.1,9.2,0.2,13.7,0.3c1.7,0,3.4,0,5.1-0.2c1.8-0.3,2.6,0.5,3.1,2.1c0.9,2.7-0.1,4.9-1.7,6.9c-3.2,3.8-6.4,7.6-9.6,11.4
				C541.4,686.2,540.3,687.1,539.7,689z"/>
			<path class="st1" d="M393.9,665.5c2.3,0,4.2-0.1,6.2,0c2.2,0.1,3.1,0.9,3.1,2.7c0,2.4-1.5,4.4-3.3,4.3c-7.9-0.3-6.4-0.3-6.7,6.3
				c-0.1,2.5-0.2,5,0.2,7.4c0.5,3.2,1.9,4.3,5.1,3.6c1.5-0.3,1.9,0.2,2.3,1.2c1,2.6,0,4.8-2.7,6.1c-7.8,3.6-15.3-0.8-15.4-9.4
				c-0.1-4,0.3-8.1,0.6-12.2c0.2-1.9-0.1-2.8-2.4-2.8c-3.4,0-4.3-1.7-3.2-4.9c0.6-1.7,1.7-1.6,3.1-1.6c3.1-0.1,3.1-0.1,3-3
				c0-1.3-0.2-2.6-0.4-3.9c-0.6-2.9-0.6-2.9,2.2-3.8c0.1,0,0.2-0.1,0.4-0.1c6.4-1.6,9.5,0.4,8.3,6.9
				C393.9,663.3,394,664.2,393.9,665.5z"/>
			<path class="st1" d="M608.2,670.7c1.2-0.5,1.5-1.8,2.2-2.6c1-1.2,2.1-2.4,3.5-3.1c2.1-1.1,4.2-1.4,6.3-0.1
				c1.9,1.3,2.6,3.2,2.3,5.5c-0.4,2.7-2,4.5-4.4,5.7c-0.9,0.5-1-0.3-1.5-0.7c-2.2-2.1-3.5-2.2-5.6-0.3c-1.7,1.5-2.8,3.4-2.9,5.8
				c-0.3,4.3-0.3,8.7,1.2,12.8c0.7,1.9,0.2,2.6-1.5,3.1c-2.1,0.6-4.3,1.3-6.5,1.1c-2.8-0.2-4-1.3-4.3-4.1c-0.1-1.6,0.1-3.1,0.2-4.7
				c0.3-7.4,1.3-14.9-0.6-22.3c-0.3-1.1-0.1-1.8,1.1-1.9c0.3,0,0.5-0.1,0.8-0.2C604.8,663,607.2,664.5,608.2,670.7z"/>
		</g>
		<path class="st1" d="M289.5,446.7c-41.2-21.1-76.2-67.3-78.3-125.4c-2.2-62.5,34.8-119.4,91.2-143.1c-0.2-1.4-1.2-2.3-1.8-3.4
			c-18.4-29.9-12.1-68.5,14.8-91c39.6-33.1,103.4-14.2,114.3,41.3c7.5,38-18.5,75.3-56.6,82c-5.6,1-11.2,1.1-16.8,1.3
			c-48.3,1.6-91.2,36.4-101.4,86.1c-3.8,18.3-2.7,36.5,3,54.3c0.9,2.7,1.1,5.2,0.9,8c-3.2,33.5,6.3,62.9,29,87.9
			C288.3,445.4,288.9,446.1,289.5,446.7z M344.1,91.7c10,5.9,14.2,13.8,11.2,24.4c-2.1,7.8-9.1,13.4-16.9,13.7
			c-12.1,0.5-19.1-6-21.8-17.7c-8,13.8-4.7,32.7,7.4,44.2c12.7,12.1,31.7,13.9,46.4,4.4c14.8-9.5,21.1-27.5,15.4-44
			C380.3,100.7,364.2,89.1,344.1,91.7z"/>
		<path class="st1" d="M291,330.4c19.4,38,62.4,52.9,98.7,38.3c20.5-8.2,35.1-22.7,43.4-43.1c8.3-20.2,7.5-40.6-1.2-61.3
			c8.8,5.7,15.9,11.9,22.3,19.1c15.5,17.5,25.2,37.8,28,61.2c3.8,32.2-4,61-25.2,85.8c-6.5,7.6-14.1,14-22.6,19.4
			c-14.1,8.9-29.4,14.7-45.9,16.6c-50.3,5.7-95.5-27.2-105.1-73.9c-4.3-20.8-1.7-40.9,6.8-60.3C290.2,331.6,290.5,331.2,291,330.4z"
			/>
		<path class="st1" d="M360.6,338.8c-28.5,0.2-51.7-23-52.1-51.5c-0.4-26.4,20.4-52.2,51.9-52.6c28.4-0.3,52,23.2,52.2,51.5
			C412.7,315.3,389.6,338.6,360.6,338.8z"/>
		<path class="st1" d="M337.6,27.2c1.3,0.9,1.9-0.4,2.6-1c7.1-5.8,15.1-9.5,24.1-10.8c10.4-1.6,20.4-0.3,29.9,4.3
			c0.5,0.2,1,0.4,1,1.2c-12.2-1-23.5,1.7-33.7,9c9.7,0.9,18.9,3.2,27.3,8.1c8.5,5,15.3,11.5,20.2,20.2
			c-32.9-17.3-65.2-16.6-97.7,2.5c-1-11.2,1.7-21.1,7.6-30.2c8.1-12.6,19.6-20.1,34.5-22.4C346.7,13.5,341.5,19.9,337.6,27.2
			c0.1,0.2,0.1,0.3,0.2,0.4C337.7,27.5,337.7,27.4,337.6,27.2z"/>
	</g>
	<path class="st2" d="M269,90.1l0-0.1c0,0,0.1,0,0.1,0C269,90,269,90.1,269,90.1z"/>
</g>
<path class="st3" d="M337.6,27.2c0.1,0.1,0.1,0.3,0.2,0.4C337.7,27.6,337.7,27.5,337.6,27.2C337.6,27.3,337.6,27.2,337.6,27.2z"/>
</svg>
